<?xml version="1.0" encoding="UTF-8" standalone="no"?>
<svg
   xmlns:dc="http://purl.org/dc/elements/1.1/"
   xmlns:cc="http://creativecommons.org/ns#"
   xmlns:rdf="http://www.w3.org/1999/02/22-rdf-syntax-ns#"
   xmlns:svg="http://www.w3.org/2000/svg"
   xmlns="http://www.w3.org/2000/svg"
   xmlns:sodipodi="http://sodipodi.sourceforge.net/DTD/sodipodi-0.dtd"
   xmlns:inkscape="http://www.inkscape.org/namespaces/inkscape"
   width="64.411957mm"
   height="64.411957mm"
   viewBox="0 0 64.411957 64.411957"
   version="1.1"
   id="svg8"
   inkscape:version="1.0.2-2 (e86c870879, 2021-01-15)"
   sodipodi:docname="dibujo.svg"
   inkscape:export-filename="C:\Users\gabri\bitmap.png"
   inkscape:export-xdpi="96"
   inkscape:export-ydpi="96">
  <defs
     id="defs2" />
  <sodipodi:namedview
     id="base"
     pagecolor="#ffffff"
     bordercolor="#666666"
     borderopacity="1.0"
     inkscape:pageopacity="0.0"
     inkscape:pageshadow="2"
     inkscape:zoom="0.98994949"
     inkscape:cx="125.6813"
     inkscape:cy="230.15033"
     inkscape:document-units="mm"
     inkscape:current-layer="layer1"
     inkscape:document-rotation="0"
     showgrid="false"
     inkscape:window-width="1885"
     inkscape:window-height="1248"
     inkscape:window-x="432"
     inkscape:window-y="411"
     inkscape:window-maximized="0"
     objecttolerance="20"
     fit-margin-top="0"
     fit-margin-left="0"
     fit-margin-right="0"
     fit-margin-bottom="0" />
  <metadata
     id="metadata5">
    <rdf:RDF>
      <cc:Work
         rdf:about="">
        <dc:format>image/svg+xml</dc:format>
        <dc:type
           rdf:resource="http://purl.org/dc/dcmitype/StillImage" />
        <dc:title></dc:title>
      </cc:Work>
    </rdf:RDF>
  </metadata>
  <g
     inkscape:label="Capa 1"
     inkscape:groupmode="layer"
     id="layer1"
     transform="translate(-56.393871,-40.090427)">
    <rect
       style="fill:#5e35b1;fill-opacity:1;stroke-width:0.264583"
       id="rect841"
       width="64.411957"
       height="64.411957"
       x="56.393871"
       y="40.090427"
       inkscape:export-xdpi="96"
       inkscape:export-ydpi="96" />
    <g
       id="g857"
       transform="matrix(1.773491,0,0,1.773491,67.317958,50.011851)"
       style="fill:#ffffff;fill-opacity:1"
       inkscape:export-xdpi="96"
       inkscape:export-ydpi="96">
      <path
         d="m 0.221,16.268 a 15.064,15.064 0 0 0 1.789,1.9 C 2.008,18.111 2,18.057 2,18 A 5.029,5.029 0 0 1 5.233,13.322 1,1 0 0 0 5.408,11.538 2.968,2.968 0 0 1 4,9 2.988,2.988 0 0 1 9.022,6.8 5.951,5.951 0 0 1 11.044,6.085 4.994,4.994 0 1 0 3.131,12.17 7.07,7.07 0 0 0 0.221,16.268 Z m 23.558,0 a 7.07,7.07 0 0 0 -2.91,-4.1 4.994,4.994 0 1 0 -7.913,-6.086 5.949,5.949 0 0 1 2.022,0.715 2.993,2.993 0 1 1 3.614,4.74 1,1 0 0 0 0.175,1.784 A 5.029,5.029 0 0 1 22,18 c 0,0.057 -0.008,0.111 -0.01,0.167 a 15.065,15.065 0 0 0 1.789,-1.899 z"
         id="path843"
         style="fill:#ffffff;fill-opacity:1" />
      <path
         d="M 18.954,20.284 A 7.051,7.051 0 0 0 15.869,15.17 4.956,4.956 0 0 0 17,12 5,5 0 1 0 8.131,15.17 7.051,7.051 0 0 0 5.046,20.284 14.923,14.923 0 0 0 7.014,21.133 C 7.012,21.088 7,21.046 7,21 A 5.031,5.031 0 0 1 10.233,16.322 1,1 0 0 0 10.408,14.537 2.964,2.964 0 0 1 9,12 a 3,3 0 1 1 6,0 2.964,2.964 0 0 1 -1.408,2.537 1,1 0 0 0 0.175,1.785 A 5.031,5.031 0 0 1 17,21 c 0,0.046 -0.012,0.088 -0.013,0.133 a 14.919,14.919 0 0 0 1.967,-0.849 z"
         id="path845"
         style="fill:#ffffff;fill-opacity:1" />
    </g>
  </g>
</svg>
